<svg xmlns="http://www.w3.org/2000/svg" xmlns:xlink="http://www.w3.org/1999/xlink" aria-hidden="true" role="img" class="iconify iconify--logos" width="35.93" height="32" preserveAspectRatio="xMidYMid meet" viewBox="0 0 256 228"><path fill="#00D8FF" d="M210.483 73.824a171.49 171.49 0 0 0-8.24-2.597c.465-1.9.893-3.777 1.273-5.621 6.238-30.281 2.16-54.676-11.769-62.708-13.355-7.7-35.196.329-57.254 19.526a171.23 171.23 0 0 0-6.375 5.848 155.866 155.866 0 0 0-4.241-3.917C100.759 3.829 77.587-4.822 63.673 3.233 50.33 10.957 46.379 33.89 51.995 62.588a170.974 170.974 0 0 0 1.892 8.48c-3.28.932-6.445 1.924-9.474 2.98C17.309 83.498 0 98.307 0 113.668c0 15.865 18.582 31.778 46.812 41.427a145.52 145.52 0 0 0 6.921 2.165 167.467 167.467 0 0 0-2.01 9.138c-5.354 28.2-1.173 50.591 12.134 58.266 13.744 7.926 36.812.066 59.273-19.835a145.567 145.567 0 0 0 5.342-4.923 168.064 168.064 0 0 0 6.92 6.314c21.758 18.722 43.246 25.409 56.54 17.732 13.731-7.925 18.194-31.219 12.4-59.5a145.016 145.016 0 0 0-1.535-6.842c1.62-.48 3.21-.974 4.76-1.488 29.348-9.723 47.294-25.443 47.294-41.52 0-15.417-17.231-30.326-45.517-39.844Zm-6.365 70.984c-1.4.463-2.836.91-4.3 1.345-3.24-10.257-7.612-21.163-12.963-32.432-5.113-10.7-10.99-21.459-17.436-31.853a140.318 140.318 0 0 1 4.643-4.062c12.463-10.566 24.1-18.7 32.06-22.064 7.96-3.365 12.229-.8 13.674 2.44 1.501 3.36.017 9.1-3.805 16.24-2.17 4.03-5.22 8.6-8.99 13.558a347.8 347.8 0 0 0-4.1 5.4c7.889 12.8 14.56 25.078 19.8 36.4 5.24 11.32 8.9 21.2 10.8 29.1.1.4.1.8.2 1.2-4.3 1.3-8.8 2.5-13.4 3.6Zm-10.556 25.529c2.36 7.8 4.22 15.1 5.5 21.6-8.1 2.1-16.8 3.8-25.9 5.1a347.8 347.8 0 0 0 4.1 5.4c6.4 10.3 12.3 21.1 17.4 31.8 5.4 11.3 9.7 22.2 13 32.5 4.6-1.5 9-3.1 13.2-4.8-1.3-6.5-3.1-13.7-5.4-21.4-2.3-7.7-5.1-15.8-8.4-24.1-3.3-8.3-7.1-16.7-11.4-25.1Zm-30.1 15.2c-5.3 8.7-10.8 16.8-16.2 24.1-5.4 7.3-10.7 13.7-15.7 19-5 5.3-9.7 9.5-13.8 12.4-4.1 2.9-7.4 4.4-9.6 4.1-2.2-.3-3.3-2.1-3.1-5.2.2-3.1 1.7-7.3 4.3-12.2 2.6-4.9 6.1-10.3 10.3-15.9a347.8 347.8 0 0 1 4.1-5.4c-7.9-12.8-14.6-25.1-19.8-36.4-5.2-11.3-8.9-21.2-10.8-29.1-.1-.4-.1-.8-.2-1.2 4.3-1.3 8.8-2.5 13.4-3.6 2.4 10.3 6.6 21.2 12.5 32.2 5.9 11 12.8 21.9 20.4 32.2Zm-8.3-88.5c-6.4-10.3-12.3-21.1-17.4-31.8-5.3-11.3-9.7-22.2-13-32.5-4.6 1.5-9 3.1-13.2 4.8 1.3 6.5 3.1 13.7 5.4 21.4 2.3 7.7 5.1 15.8 8.4 24.1 3.3 8.3 7.1 16.7 11.4 25.1 5.3-8.7 10.8-16.8 16.2-24.1 5.4-7.3 10.7-13.7 15.7-19 5-5.3 9.7-9.5 13.8-12.4 4.1-2.9 7.4-4.4 9.6-4.1 2.2.3 3.3 2.1 3.1 5.2-.2 3.1-1.7 7.3-4.3 12.2-2.6 4.9-6.1 10.3-10.3 15.9a347.8 347.8 0 0 1-4.1 5.4c7.9 12.8 14.6 25.1 19.8 36.4 5.2 11.3 8.9 21.2 10.8 29.1.1.4.1.8.2 1.2-4.3 1.3-8.8 2.5-13.4 3.6-2.4-10.3-6.6-21.2-12.5-32.2-5.9-11-12.8-21.9-20.4-32.2Zm22.2 25.3c-2.4-7.8-4.2-15.1-5.5-21.6 8.1-2.1 16.8-3.8 25.9-5.1a347.8 347.8 0 0 0-4.1-5.4c-6.4-10.3-12.3-21.1-17.4-31.8-5.4-11.3-9.7-22.2-13-32.5-4.6 1.5-9 3.1-13.2 4.8 1.3 6.5 3.1 13.7 5.4 21.4 2.3 7.7 5.1 15.8 8.4 24.1 3.3 8.3 7.1 16.7 11.4 25.1 5.3-8.7 10.8-16.8 16.2-24.1 5.4-7.3 10.7-13.7 15.7-19 5-5.3 9.7-9.5 13.8-12.4 4.1-2.9 7.4-4.4 9.6-4.1 2.2.3 3.3 2.1 3.1 5.2-.2 3.1-1.7 7.3-4.3 12.2-2.6 4.9-6.1 10.3-10.3 15.9a347.8 347.8 0 0 1-4.1 5.4c7.9 12.8 14.6 25.1 19.8 36.4 5.2 11.3 8.9 21.2 10.8 29.1.1.4.1.8.2 1.2-4.3 1.3-8.8 2.5-13.4 3.6-2.4-10.3-6.6-21.2-12.5-32.2-5.9-11-12.8-21.9-20.4-32.2Z"></path><circle cx="128" cy="114" r="22" fill="#00D8FF"></circle><path fill="#00D8FF" d="M128 92c-12.15 0-22 9.85-22 22s9.85 22 22 22 22-9.85 22-22-9.85-22-22-22zm0 40c-9.94 0-18-8.06-18-18s8.06-18 18-18 18 8.06 18 18-8.06 18-18 18z"></path><path fill="#00D8FF" d="M128 100c-7.73 0-14 6.27-14 14s6.27 14 14 14 14-6.27 14-14-6.27-14-14-14zm0 24c-5.52 0-10-4.48-10-10s4.48-10 10-10 10 4.48 10 10-4.48 10-10 10z"></path></svg>
